<?xml version="1.0" encoding="utf-8"?>
<svg version="1.1" xmlns:xlink="http://www.w3.org/1999/xlink" width="104px" height="104px" xmlns="http://www.w3.org/2000/svg">
  <g transform="matrix(1 0 0 1 -399 -1737 )">
    <path d="M 400 1741  A 3 3 0 0 1 403 1738 L 499 1738  A 3 3 0 0 1 502 1741 L 502 1837  A 3 3 0 0 1 499 1840 L 403 1840  A 3 3 0 0 1 400 1837 L 400 1741  Z " fill-rule="nonzero" fill="#000000" stroke="none" fill-opacity="0.0196078431372549" />
    <path d="M 399.5 1741  A 3.5 3.5 0 0 1 403 1737.5 L 499 1737.5  A 3.5 3.5 0 0 1 502.5 1741 L 502.5 1837  A 3.5 3.5 0 0 1 499 1840.5 L 403 1840.5  A 3.5 3.5 0 0 1 399.5 1837 L 399.5 1741  Z " stroke-width="1" stroke-dasharray="9,4" stroke="#d9d9d9" fill="none" stroke-dashoffset="0.5" />
  </g>
</svg>