<?xml version="1.0" encoding="utf-8"?>
<svg version="1.1" xmlns:xlink="http://www.w3.org/1999/xlink" width="93px" height="58px" xmlns="http://www.w3.org/2000/svg">
  <g transform="matrix(1 0 0 1 -524 -2891 )">
    <path d="M 524 2891  L 617 2891  L 617 2949  L 524 2949  L 524 2891  " fill-rule="nonzero" fill="#cccccc" stroke="none" />
    <path d="M 528 2895  L 613 2895  L 613 2945  L 528 2945  L 528 2895  " fill-rule="nonzero" fill="#ffffff" stroke="none" />
    <path d="M 576.71 2908.4  C 574.274 2908.4  572.36 2906.486  572.36 2904.05  C 572.36 2901.614  574.274 2899.7  576.71 2899.7  C 579.146 2899.7  581.06 2901.614  581.06 2904.05  C 581.06 2906.486  579.146 2908.4  576.71 2908.4  " fill-rule="nonzero" fill="#cccccc" stroke="none" />
    <path d="M 530 2944  L 530 2918.15  L 550.5 2906.4  L 579.2 2926.41290322581  L 595.6 2913.45  L 612 2926.41290322581  L 612 2944  L 530 2944  " fill-rule="nonzero" fill="#169bd5" stroke="none" />
  </g>
</svg>