<?xml version="1.0" encoding="utf-8"?>
<svg version="1.1" xmlns:xlink="http://www.w3.org/1999/xlink" width="104px" height="104px" xmlns="http://www.w3.org/2000/svg">
  <g transform="matrix(1 0 0 1 -519 -1737 )">
    <path d="M 520 1741  A 3 3 0 0 1 523 1738 L 619 1738  A 3 3 0 0 1 622 1741 L 622 1837  A 3 3 0 0 1 619 1840 L 523 1840  A 3 3 0 0 1 520 1837 L 520 1741  Z " fill-rule="nonzero" fill="#ffffff" stroke="none" />
    <path d="M 519.5 1741  A 3.5 3.5 0 0 1 523 1737.5 L 619 1737.5  A 3.5 3.5 0 0 1 622.5 1741 L 622.5 1837  A 3.5 3.5 0 0 1 619 1840.5 L 523 1840.5  A 3.5 3.5 0 0 1 519.5 1837 L 519.5 1741  Z " stroke-width="1" stroke-dasharray="9,4" stroke="#d9d9d9" fill="none" stroke-dashoffset="0.5" />
  </g>
</svg>